<mxfile host="app.diagrams.net" modified="2021-11-10T20:23:57.657Z" agent="5.0 (Windows NT 10.0; Win64; x64) AppleWebKit/537.36 (KHTML, like Gecko) Chrome/94.0.4606.81 Safari/537.36 OPR/80.0.4170.63" etag="MZTsHzkuf2wCPB_8OXqW" version="15.6.8" type="github">
  <diagram id="WHflAuviwdAXz2qI2M-M" name="Page-1">
    <mxGraphModel dx="2200" dy="1365" grid="1" gridSize="10" guides="1" tooltips="1" connect="1" arrows="1" fold="1" page="1" pageScale="1" pageWidth="827" pageHeight="1169" math="0" shadow="0">
      <root>
        <mxCell id="0" />
        <mxCell id="1" parent="0" />
        <mxCell id="qP2tun5V-NxsUiKVBMGJ-1" value="" style="rounded=0;whiteSpace=wrap;html=1;" vertex="1" parent="1">
          <mxGeometry x="160" y="120" width="40" height="320" as="geometry" />
        </mxCell>
        <mxCell id="qP2tun5V-NxsUiKVBMGJ-2" value="" style="rounded=0;whiteSpace=wrap;html=1;" vertex="1" parent="1">
          <mxGeometry x="160" y="440" width="40" height="120" as="geometry" />
        </mxCell>
        <mxCell id="qP2tun5V-NxsUiKVBMGJ-3" value="" style="rounded=0;whiteSpace=wrap;html=1;" vertex="1" parent="1">
          <mxGeometry x="200" y="120" width="80" height="440" as="geometry" />
        </mxCell>
        <mxCell id="qP2tun5V-NxsUiKVBMGJ-4" value="" style="rounded=0;whiteSpace=wrap;html=1;" vertex="1" parent="1">
          <mxGeometry x="280" y="120" width="40" height="440" as="geometry" />
        </mxCell>
        <mxCell id="qP2tun5V-NxsUiKVBMGJ-21" value="0" style="text;html=1;strokeColor=none;fillColor=none;align=center;verticalAlign=middle;whiteSpace=wrap;rounded=0;" vertex="1" parent="1">
          <mxGeometry x="165" y="130" width="30" height="30" as="geometry" />
        </mxCell>
        <mxCell id="qP2tun5V-NxsUiKVBMGJ-22" value="1" style="text;html=1;strokeColor=none;fillColor=none;align=center;verticalAlign=middle;whiteSpace=wrap;rounded=0;" vertex="1" parent="1">
          <mxGeometry x="165" y="170" width="30" height="30" as="geometry" />
        </mxCell>
        <mxCell id="qP2tun5V-NxsUiKVBMGJ-23" value="2" style="text;html=1;strokeColor=none;fillColor=none;align=center;verticalAlign=middle;whiteSpace=wrap;rounded=0;" vertex="1" parent="1">
          <mxGeometry x="165" y="210" width="30" height="30" as="geometry" />
        </mxCell>
        <mxCell id="qP2tun5V-NxsUiKVBMGJ-24" value="3" style="text;html=1;strokeColor=none;fillColor=none;align=center;verticalAlign=middle;whiteSpace=wrap;rounded=0;" vertex="1" parent="1">
          <mxGeometry x="165" y="250" width="30" height="30" as="geometry" />
        </mxCell>
        <mxCell id="qP2tun5V-NxsUiKVBMGJ-25" value="4" style="text;html=1;strokeColor=none;fillColor=none;align=center;verticalAlign=middle;whiteSpace=wrap;rounded=0;" vertex="1" parent="1">
          <mxGeometry x="165" y="290" width="30" height="30" as="geometry" />
        </mxCell>
        <mxCell id="qP2tun5V-NxsUiKVBMGJ-26" value="5" style="text;html=1;strokeColor=none;fillColor=none;align=center;verticalAlign=middle;whiteSpace=wrap;rounded=0;" vertex="1" parent="1">
          <mxGeometry x="165" y="330" width="30" height="30" as="geometry" />
        </mxCell>
        <mxCell id="qP2tun5V-NxsUiKVBMGJ-27" value="6" style="text;html=1;strokeColor=none;fillColor=none;align=center;verticalAlign=middle;whiteSpace=wrap;rounded=0;" vertex="1" parent="1">
          <mxGeometry x="165" y="370" width="30" height="30" as="geometry" />
        </mxCell>
        <mxCell id="qP2tun5V-NxsUiKVBMGJ-28" value="7" style="text;html=1;strokeColor=none;fillColor=none;align=center;verticalAlign=middle;whiteSpace=wrap;rounded=0;" vertex="1" parent="1">
          <mxGeometry x="165" y="410" width="30" height="30" as="geometry" />
        </mxCell>
        <mxCell id="qP2tun5V-NxsUiKVBMGJ-29" value="a&lt;sub&gt;0&lt;/sub&gt;" style="text;html=1;strokeColor=none;fillColor=none;align=center;verticalAlign=middle;whiteSpace=wrap;rounded=0;" vertex="1" parent="1">
          <mxGeometry x="165" y="450" width="30" height="30" as="geometry" />
        </mxCell>
        <mxCell id="qP2tun5V-NxsUiKVBMGJ-30" value="a&lt;span style=&quot;font-size: 10px&quot;&gt;&lt;sub&gt;1&lt;/sub&gt;&lt;/span&gt;" style="text;html=1;strokeColor=none;fillColor=none;align=center;verticalAlign=middle;whiteSpace=wrap;rounded=0;" vertex="1" parent="1">
          <mxGeometry x="165" y="490" width="30" height="30" as="geometry" />
        </mxCell>
        <mxCell id="qP2tun5V-NxsUiKVBMGJ-31" value="a&lt;span style=&quot;font-size: 8.33333px&quot;&gt;&lt;sub&gt;2&lt;/sub&gt;&lt;/span&gt;" style="text;html=1;strokeColor=none;fillColor=none;align=center;verticalAlign=middle;whiteSpace=wrap;rounded=0;" vertex="1" parent="1">
          <mxGeometry x="165" y="530" width="30" height="30" as="geometry" />
        </mxCell>
        <mxCell id="qP2tun5V-NxsUiKVBMGJ-32" value="" style="rounded=0;whiteSpace=wrap;html=1;" vertex="1" parent="1">
          <mxGeometry x="160" y="600" width="40" height="320" as="geometry" />
        </mxCell>
        <mxCell id="qP2tun5V-NxsUiKVBMGJ-33" value="" style="rounded=0;whiteSpace=wrap;html=1;" vertex="1" parent="1">
          <mxGeometry x="160" y="920" width="40" height="120" as="geometry" />
        </mxCell>
        <mxCell id="qP2tun5V-NxsUiKVBMGJ-34" value="" style="rounded=0;whiteSpace=wrap;html=1;" vertex="1" parent="1">
          <mxGeometry x="200" y="600" width="80" height="440" as="geometry" />
        </mxCell>
        <mxCell id="qP2tun5V-NxsUiKVBMGJ-35" value="" style="rounded=0;whiteSpace=wrap;html=1;" vertex="1" parent="1">
          <mxGeometry x="280" y="600" width="40" height="440" as="geometry" />
        </mxCell>
        <mxCell id="qP2tun5V-NxsUiKVBMGJ-36" value="0" style="text;html=1;strokeColor=none;fillColor=none;align=center;verticalAlign=middle;whiteSpace=wrap;rounded=0;" vertex="1" parent="1">
          <mxGeometry x="165" y="610" width="30" height="30" as="geometry" />
        </mxCell>
        <mxCell id="qP2tun5V-NxsUiKVBMGJ-37" value="1" style="text;html=1;strokeColor=none;fillColor=none;align=center;verticalAlign=middle;whiteSpace=wrap;rounded=0;" vertex="1" parent="1">
          <mxGeometry x="165" y="650" width="30" height="30" as="geometry" />
        </mxCell>
        <mxCell id="qP2tun5V-NxsUiKVBMGJ-38" value="2" style="text;html=1;strokeColor=none;fillColor=none;align=center;verticalAlign=middle;whiteSpace=wrap;rounded=0;" vertex="1" parent="1">
          <mxGeometry x="165" y="690" width="30" height="30" as="geometry" />
        </mxCell>
        <mxCell id="qP2tun5V-NxsUiKVBMGJ-39" value="3" style="text;html=1;strokeColor=none;fillColor=none;align=center;verticalAlign=middle;whiteSpace=wrap;rounded=0;" vertex="1" parent="1">
          <mxGeometry x="165" y="730" width="30" height="30" as="geometry" />
        </mxCell>
        <mxCell id="qP2tun5V-NxsUiKVBMGJ-40" value="4" style="text;html=1;strokeColor=none;fillColor=none;align=center;verticalAlign=middle;whiteSpace=wrap;rounded=0;" vertex="1" parent="1">
          <mxGeometry x="165" y="770" width="30" height="30" as="geometry" />
        </mxCell>
        <mxCell id="qP2tun5V-NxsUiKVBMGJ-41" value="5" style="text;html=1;strokeColor=none;fillColor=none;align=center;verticalAlign=middle;whiteSpace=wrap;rounded=0;" vertex="1" parent="1">
          <mxGeometry x="165" y="810" width="30" height="30" as="geometry" />
        </mxCell>
        <mxCell id="qP2tun5V-NxsUiKVBMGJ-42" value="6" style="text;html=1;strokeColor=none;fillColor=none;align=center;verticalAlign=middle;whiteSpace=wrap;rounded=0;" vertex="1" parent="1">
          <mxGeometry x="165" y="850" width="30" height="30" as="geometry" />
        </mxCell>
        <mxCell id="qP2tun5V-NxsUiKVBMGJ-43" value="7" style="text;html=1;strokeColor=none;fillColor=none;align=center;verticalAlign=middle;whiteSpace=wrap;rounded=0;" vertex="1" parent="1">
          <mxGeometry x="165" y="890" width="30" height="30" as="geometry" />
        </mxCell>
        <mxCell id="qP2tun5V-NxsUiKVBMGJ-44" value="a&lt;sub&gt;0&lt;/sub&gt;" style="text;html=1;strokeColor=none;fillColor=none;align=center;verticalAlign=middle;whiteSpace=wrap;rounded=0;" vertex="1" parent="1">
          <mxGeometry x="165" y="930" width="30" height="30" as="geometry" />
        </mxCell>
        <mxCell id="qP2tun5V-NxsUiKVBMGJ-45" value="a&lt;span style=&quot;font-size: 10px&quot;&gt;&lt;sub&gt;1&lt;/sub&gt;&lt;/span&gt;" style="text;html=1;strokeColor=none;fillColor=none;align=center;verticalAlign=middle;whiteSpace=wrap;rounded=0;" vertex="1" parent="1">
          <mxGeometry x="165" y="970" width="30" height="30" as="geometry" />
        </mxCell>
        <mxCell id="qP2tun5V-NxsUiKVBMGJ-46" value="a&lt;span style=&quot;font-size: 8.33333px&quot;&gt;&lt;sub&gt;2&lt;/sub&gt;&lt;/span&gt;" style="text;html=1;strokeColor=none;fillColor=none;align=center;verticalAlign=middle;whiteSpace=wrap;rounded=0;" vertex="1" parent="1">
          <mxGeometry x="165" y="1010" width="30" height="30" as="geometry" />
        </mxCell>
        <mxCell id="qP2tun5V-NxsUiKVBMGJ-49" value="" style="rounded=0;whiteSpace=wrap;html=1;" vertex="1" parent="1">
          <mxGeometry x="440" y="520" width="40" height="320" as="geometry" />
        </mxCell>
        <mxCell id="qP2tun5V-NxsUiKVBMGJ-50" value="" style="rounded=0;whiteSpace=wrap;html=1;" vertex="1" parent="1">
          <mxGeometry x="440" y="840" width="40" height="120" as="geometry" />
        </mxCell>
        <mxCell id="qP2tun5V-NxsUiKVBMGJ-51" value="" style="rounded=0;whiteSpace=wrap;html=1;" vertex="1" parent="1">
          <mxGeometry x="480" y="520" width="80" height="440" as="geometry" />
        </mxCell>
        <mxCell id="qP2tun5V-NxsUiKVBMGJ-52" value="" style="rounded=0;whiteSpace=wrap;html=1;" vertex="1" parent="1">
          <mxGeometry x="560" y="520" width="40" height="440" as="geometry" />
        </mxCell>
        <mxCell id="qP2tun5V-NxsUiKVBMGJ-53" value="0" style="text;html=1;strokeColor=none;fillColor=none;align=center;verticalAlign=middle;whiteSpace=wrap;rounded=0;" vertex="1" parent="1">
          <mxGeometry x="445" y="530" width="30" height="30" as="geometry" />
        </mxCell>
        <mxCell id="qP2tun5V-NxsUiKVBMGJ-54" value="1" style="text;html=1;strokeColor=none;fillColor=none;align=center;verticalAlign=middle;whiteSpace=wrap;rounded=0;" vertex="1" parent="1">
          <mxGeometry x="445" y="570" width="30" height="30" as="geometry" />
        </mxCell>
        <mxCell id="qP2tun5V-NxsUiKVBMGJ-55" value="2" style="text;html=1;strokeColor=none;fillColor=none;align=center;verticalAlign=middle;whiteSpace=wrap;rounded=0;" vertex="1" parent="1">
          <mxGeometry x="445" y="610" width="30" height="30" as="geometry" />
        </mxCell>
        <mxCell id="qP2tun5V-NxsUiKVBMGJ-56" value="3" style="text;html=1;strokeColor=none;fillColor=none;align=center;verticalAlign=middle;whiteSpace=wrap;rounded=0;" vertex="1" parent="1">
          <mxGeometry x="445" y="650" width="30" height="30" as="geometry" />
        </mxCell>
        <mxCell id="qP2tun5V-NxsUiKVBMGJ-57" value="4" style="text;html=1;strokeColor=none;fillColor=none;align=center;verticalAlign=middle;whiteSpace=wrap;rounded=0;" vertex="1" parent="1">
          <mxGeometry x="445" y="690" width="30" height="30" as="geometry" />
        </mxCell>
        <mxCell id="qP2tun5V-NxsUiKVBMGJ-58" value="5" style="text;html=1;strokeColor=none;fillColor=none;align=center;verticalAlign=middle;whiteSpace=wrap;rounded=0;" vertex="1" parent="1">
          <mxGeometry x="445" y="730" width="30" height="30" as="geometry" />
        </mxCell>
        <mxCell id="qP2tun5V-NxsUiKVBMGJ-59" value="6" style="text;html=1;strokeColor=none;fillColor=none;align=center;verticalAlign=middle;whiteSpace=wrap;rounded=0;" vertex="1" parent="1">
          <mxGeometry x="445" y="770" width="30" height="30" as="geometry" />
        </mxCell>
        <mxCell id="qP2tun5V-NxsUiKVBMGJ-60" value="7" style="text;html=1;strokeColor=none;fillColor=none;align=center;verticalAlign=middle;whiteSpace=wrap;rounded=0;" vertex="1" parent="1">
          <mxGeometry x="445" y="810" width="30" height="30" as="geometry" />
        </mxCell>
        <mxCell id="qP2tun5V-NxsUiKVBMGJ-61" value="a&lt;sub&gt;0&lt;/sub&gt;" style="text;html=1;strokeColor=none;fillColor=none;align=center;verticalAlign=middle;whiteSpace=wrap;rounded=0;" vertex="1" parent="1">
          <mxGeometry x="445" y="850" width="30" height="30" as="geometry" />
        </mxCell>
        <mxCell id="qP2tun5V-NxsUiKVBMGJ-62" value="a&lt;span style=&quot;font-size: 10px&quot;&gt;&lt;sub&gt;1&lt;/sub&gt;&lt;/span&gt;" style="text;html=1;strokeColor=none;fillColor=none;align=center;verticalAlign=middle;whiteSpace=wrap;rounded=0;" vertex="1" parent="1">
          <mxGeometry x="445" y="890" width="30" height="30" as="geometry" />
        </mxCell>
        <mxCell id="qP2tun5V-NxsUiKVBMGJ-63" value="a&lt;span style=&quot;font-size: 8.33333px&quot;&gt;&lt;sub&gt;2&lt;/sub&gt;&lt;/span&gt;" style="text;html=1;strokeColor=none;fillColor=none;align=center;verticalAlign=middle;whiteSpace=wrap;rounded=0;" vertex="1" parent="1">
          <mxGeometry x="445" y="930" width="30" height="30" as="geometry" />
        </mxCell>
        <mxCell id="qP2tun5V-NxsUiKVBMGJ-64" value="" style="endArrow=none;html=1;rounded=0;entryX=0;entryY=0.187;entryDx=0;entryDy=0;entryPerimeter=0;exitX=1;exitY=0.25;exitDx=0;exitDy=0;" edge="1" parent="1" source="qP2tun5V-NxsUiKVBMGJ-35" target="qP2tun5V-NxsUiKVBMGJ-49">
          <mxGeometry width="50" height="50" relative="1" as="geometry">
            <mxPoint x="290" y="740" as="sourcePoint" />
            <mxPoint x="340" y="690" as="targetPoint" />
            <Array as="points">
              <mxPoint x="380" y="710" />
              <mxPoint x="380" y="580" />
            </Array>
          </mxGeometry>
        </mxCell>
        <mxCell id="qP2tun5V-NxsUiKVBMGJ-65" value="" style="endArrow=none;html=1;rounded=0;entryX=-0.001;entryY=0.062;entryDx=0;entryDy=0;entryPerimeter=0;exitX=1;exitY=0.25;exitDx=0;exitDy=0;" edge="1" parent="1" source="qP2tun5V-NxsUiKVBMGJ-4" target="qP2tun5V-NxsUiKVBMGJ-49">
          <mxGeometry width="50" height="50" relative="1" as="geometry">
            <mxPoint x="360" y="920" as="sourcePoint" />
            <mxPoint x="410" y="870" as="targetPoint" />
            <Array as="points">
              <mxPoint x="380" y="230" />
              <mxPoint x="380" y="540" />
            </Array>
          </mxGeometry>
        </mxCell>
        <mxCell id="qP2tun5V-NxsUiKVBMGJ-66" value="" style="endArrow=none;html=1;rounded=0;entryX=-0.003;entryY=0.166;entryDx=0;entryDy=0;entryPerimeter=0;" edge="1" parent="1" target="qP2tun5V-NxsUiKVBMGJ-50">
          <mxGeometry width="50" height="50" relative="1" as="geometry">
            <mxPoint x="120" y="1100" as="sourcePoint" />
            <mxPoint x="420" y="860" as="targetPoint" />
            <Array as="points">
              <mxPoint x="380" y="1100" />
              <mxPoint x="380" y="860" />
            </Array>
          </mxGeometry>
        </mxCell>
        <mxCell id="qP2tun5V-NxsUiKVBMGJ-67" value="" style="endArrow=none;html=1;rounded=0;exitX=0;exitY=0.063;exitDx=0;exitDy=0;exitPerimeter=0;" edge="1" parent="1" source="qP2tun5V-NxsUiKVBMGJ-1">
          <mxGeometry width="50" height="50" relative="1" as="geometry">
            <mxPoint x="100" y="150" as="sourcePoint" />
            <mxPoint x="120" y="140" as="targetPoint" />
          </mxGeometry>
        </mxCell>
        <mxCell id="qP2tun5V-NxsUiKVBMGJ-68" value="" style="endArrow=none;html=1;rounded=0;exitX=0;exitY=0.063;exitDx=0;exitDy=0;exitPerimeter=0;" edge="1" parent="1">
          <mxGeometry width="50" height="50" relative="1" as="geometry">
            <mxPoint x="160" y="180.15999999999997" as="sourcePoint" />
            <mxPoint x="120" y="180" as="targetPoint" />
          </mxGeometry>
        </mxCell>
        <mxCell id="qP2tun5V-NxsUiKVBMGJ-69" value="" style="endArrow=none;html=1;rounded=0;exitX=0;exitY=0.063;exitDx=0;exitDy=0;exitPerimeter=0;" edge="1" parent="1">
          <mxGeometry width="50" height="50" relative="1" as="geometry">
            <mxPoint x="160" y="220.15999999999997" as="sourcePoint" />
            <mxPoint x="120" y="220" as="targetPoint" />
          </mxGeometry>
        </mxCell>
        <mxCell id="qP2tun5V-NxsUiKVBMGJ-70" value="" style="endArrow=none;html=1;rounded=0;exitX=0;exitY=0.063;exitDx=0;exitDy=0;exitPerimeter=0;" edge="1" parent="1">
          <mxGeometry width="50" height="50" relative="1" as="geometry">
            <mxPoint x="160" y="260.15999999999997" as="sourcePoint" />
            <mxPoint x="120" y="260" as="targetPoint" />
          </mxGeometry>
        </mxCell>
        <mxCell id="qP2tun5V-NxsUiKVBMGJ-71" value="" style="endArrow=none;html=1;rounded=0;exitX=0;exitY=0.063;exitDx=0;exitDy=0;exitPerimeter=0;" edge="1" parent="1">
          <mxGeometry width="50" height="50" relative="1" as="geometry">
            <mxPoint x="160" y="300.15999999999997" as="sourcePoint" />
            <mxPoint x="120" y="300" as="targetPoint" />
          </mxGeometry>
        </mxCell>
        <mxCell id="qP2tun5V-NxsUiKVBMGJ-72" value="" style="endArrow=none;html=1;rounded=0;exitX=0;exitY=0.063;exitDx=0;exitDy=0;exitPerimeter=0;" edge="1" parent="1">
          <mxGeometry width="50" height="50" relative="1" as="geometry">
            <mxPoint x="160" y="339.96" as="sourcePoint" />
            <mxPoint x="120" y="339.8" as="targetPoint" />
          </mxGeometry>
        </mxCell>
        <mxCell id="qP2tun5V-NxsUiKVBMGJ-73" value="" style="endArrow=none;html=1;rounded=0;exitX=0;exitY=0.063;exitDx=0;exitDy=0;exitPerimeter=0;" edge="1" parent="1">
          <mxGeometry width="50" height="50" relative="1" as="geometry">
            <mxPoint x="160" y="380.16" as="sourcePoint" />
            <mxPoint x="120" y="379.99999999999994" as="targetPoint" />
          </mxGeometry>
        </mxCell>
        <mxCell id="qP2tun5V-NxsUiKVBMGJ-74" value="" style="endArrow=none;html=1;rounded=0;exitX=0;exitY=0.063;exitDx=0;exitDy=0;exitPerimeter=0;" edge="1" parent="1">
          <mxGeometry width="50" height="50" relative="1" as="geometry">
            <mxPoint x="160" y="420.1600000000001" as="sourcePoint" />
            <mxPoint x="120" y="420" as="targetPoint" />
          </mxGeometry>
        </mxCell>
        <mxCell id="qP2tun5V-NxsUiKVBMGJ-75" value="" style="endArrow=none;html=1;rounded=0;exitX=0;exitY=0.063;exitDx=0;exitDy=0;exitPerimeter=0;" edge="1" parent="1">
          <mxGeometry width="50" height="50" relative="1" as="geometry">
            <mxPoint x="160" y="460.1600000000001" as="sourcePoint" />
            <mxPoint x="120" y="460" as="targetPoint" />
          </mxGeometry>
        </mxCell>
        <mxCell id="qP2tun5V-NxsUiKVBMGJ-76" value="" style="endArrow=none;html=1;rounded=0;exitX=0;exitY=0.063;exitDx=0;exitDy=0;exitPerimeter=0;" edge="1" parent="1">
          <mxGeometry width="50" height="50" relative="1" as="geometry">
            <mxPoint x="160" y="499.9600000000001" as="sourcePoint" />
            <mxPoint x="120" y="499.8" as="targetPoint" />
          </mxGeometry>
        </mxCell>
        <mxCell id="qP2tun5V-NxsUiKVBMGJ-77" value="" style="endArrow=none;html=1;rounded=0;exitX=0;exitY=0.063;exitDx=0;exitDy=0;exitPerimeter=0;" edge="1" parent="1">
          <mxGeometry width="50" height="50" relative="1" as="geometry">
            <mxPoint x="160" y="540.1600000000001" as="sourcePoint" />
            <mxPoint x="120" y="540" as="targetPoint" />
          </mxGeometry>
        </mxCell>
        <mxCell id="qP2tun5V-NxsUiKVBMGJ-78" value="" style="endArrow=none;html=1;rounded=0;exitX=0;exitY=0.063;exitDx=0;exitDy=0;exitPerimeter=0;" edge="1" parent="1">
          <mxGeometry width="50" height="50" relative="1" as="geometry">
            <mxPoint x="160" y="620.1600000000001" as="sourcePoint" />
            <mxPoint x="120" y="620" as="targetPoint" />
          </mxGeometry>
        </mxCell>
        <mxCell id="qP2tun5V-NxsUiKVBMGJ-79" value="" style="endArrow=none;html=1;rounded=0;exitX=0;exitY=0.063;exitDx=0;exitDy=0;exitPerimeter=0;" edge="1" parent="1">
          <mxGeometry width="50" height="50" relative="1" as="geometry">
            <mxPoint x="160" y="660.1600000000001" as="sourcePoint" />
            <mxPoint x="120" y="660" as="targetPoint" />
          </mxGeometry>
        </mxCell>
        <mxCell id="qP2tun5V-NxsUiKVBMGJ-80" value="" style="endArrow=none;html=1;rounded=0;exitX=0;exitY=0.063;exitDx=0;exitDy=0;exitPerimeter=0;" edge="1" parent="1">
          <mxGeometry width="50" height="50" relative="1" as="geometry">
            <mxPoint x="160" y="704.82" as="sourcePoint" />
            <mxPoint x="120" y="704.66" as="targetPoint" />
          </mxGeometry>
        </mxCell>
        <mxCell id="qP2tun5V-NxsUiKVBMGJ-81" value="" style="endArrow=none;html=1;rounded=0;exitX=0;exitY=0.063;exitDx=0;exitDy=0;exitPerimeter=0;" edge="1" parent="1">
          <mxGeometry width="50" height="50" relative="1" as="geometry">
            <mxPoint x="160" y="739.87" as="sourcePoint" />
            <mxPoint x="120" y="739.7099999999999" as="targetPoint" />
          </mxGeometry>
        </mxCell>
        <mxCell id="qP2tun5V-NxsUiKVBMGJ-82" value="" style="endArrow=none;html=1;rounded=0;exitX=0;exitY=0.063;exitDx=0;exitDy=0;exitPerimeter=0;" edge="1" parent="1">
          <mxGeometry width="50" height="50" relative="1" as="geometry">
            <mxPoint x="160" y="780.1599999999999" as="sourcePoint" />
            <mxPoint x="120" y="780" as="targetPoint" />
          </mxGeometry>
        </mxCell>
        <mxCell id="qP2tun5V-NxsUiKVBMGJ-83" value="" style="endArrow=none;html=1;rounded=0;exitX=0;exitY=0.063;exitDx=0;exitDy=0;exitPerimeter=0;" edge="1" parent="1">
          <mxGeometry width="50" height="50" relative="1" as="geometry">
            <mxPoint x="160" y="819.8699999999999" as="sourcePoint" />
            <mxPoint x="120" y="819.71" as="targetPoint" />
          </mxGeometry>
        </mxCell>
        <mxCell id="qP2tun5V-NxsUiKVBMGJ-84" value="" style="endArrow=none;html=1;rounded=0;exitX=0;exitY=0.063;exitDx=0;exitDy=0;exitPerimeter=0;" edge="1" parent="1">
          <mxGeometry width="50" height="50" relative="1" as="geometry">
            <mxPoint x="160" y="860.1599999999999" as="sourcePoint" />
            <mxPoint x="120" y="860" as="targetPoint" />
          </mxGeometry>
        </mxCell>
        <mxCell id="qP2tun5V-NxsUiKVBMGJ-85" value="" style="endArrow=none;html=1;rounded=0;exitX=0;exitY=0.063;exitDx=0;exitDy=0;exitPerimeter=0;" edge="1" parent="1">
          <mxGeometry width="50" height="50" relative="1" as="geometry">
            <mxPoint x="160" y="899.8699999999999" as="sourcePoint" />
            <mxPoint x="120" y="899.71" as="targetPoint" />
          </mxGeometry>
        </mxCell>
        <mxCell id="qP2tun5V-NxsUiKVBMGJ-86" value="" style="endArrow=none;html=1;rounded=0;exitX=0;exitY=0.063;exitDx=0;exitDy=0;exitPerimeter=0;" edge="1" parent="1">
          <mxGeometry width="50" height="50" relative="1" as="geometry">
            <mxPoint x="160" y="940.1599999999999" as="sourcePoint" />
            <mxPoint x="120" y="940" as="targetPoint" />
          </mxGeometry>
        </mxCell>
        <mxCell id="qP2tun5V-NxsUiKVBMGJ-87" value="" style="endArrow=none;html=1;rounded=0;exitX=0;exitY=0.063;exitDx=0;exitDy=0;exitPerimeter=0;" edge="1" parent="1">
          <mxGeometry width="50" height="50" relative="1" as="geometry">
            <mxPoint x="160" y="980.0199999999999" as="sourcePoint" />
            <mxPoint x="120" y="979.86" as="targetPoint" />
          </mxGeometry>
        </mxCell>
        <mxCell id="qP2tun5V-NxsUiKVBMGJ-88" value="" style="endArrow=none;html=1;rounded=0;exitX=0;exitY=0.063;exitDx=0;exitDy=0;exitPerimeter=0;" edge="1" parent="1">
          <mxGeometry width="50" height="50" relative="1" as="geometry">
            <mxPoint x="160" y="1020.16" as="sourcePoint" />
            <mxPoint x="120" y="1020.0000000000001" as="targetPoint" />
          </mxGeometry>
        </mxCell>
        <mxCell id="qP2tun5V-NxsUiKVBMGJ-89" value="" style="endArrow=none;html=1;rounded=0;exitX=1;exitY=0.25;exitDx=0;exitDy=0;" edge="1" parent="1" source="qP2tun5V-NxsUiKVBMGJ-52">
          <mxGeometry width="50" height="50" relative="1" as="geometry">
            <mxPoint x="630" y="700" as="sourcePoint" />
            <mxPoint x="680" y="630" as="targetPoint" />
          </mxGeometry>
        </mxCell>
        <mxCell id="qP2tun5V-NxsUiKVBMGJ-91" value="F" style="text;html=1;strokeColor=none;fillColor=none;align=center;verticalAlign=middle;whiteSpace=wrap;rounded=0;" vertex="1" parent="1">
          <mxGeometry x="680" y="610" width="30" height="30" as="geometry" />
        </mxCell>
        <mxCell id="qP2tun5V-NxsUiKVBMGJ-92" value="F&lt;sub&gt;2&lt;/sub&gt;" style="text;html=1;strokeColor=none;fillColor=none;align=center;verticalAlign=middle;whiteSpace=wrap;rounded=0;" vertex="1" parent="1">
          <mxGeometry x="565" y="610" width="30" height="30" as="geometry" />
        </mxCell>
        <mxCell id="qP2tun5V-NxsUiKVBMGJ-93" value="F&lt;span style=&quot;font-size: 10px&quot;&gt;&lt;sub&gt;1&lt;/sub&gt;&lt;/span&gt;" style="text;html=1;strokeColor=none;fillColor=none;align=center;verticalAlign=middle;whiteSpace=wrap;rounded=0;" vertex="1" parent="1">
          <mxGeometry x="285" y="690" width="30" height="30" as="geometry" />
        </mxCell>
        <mxCell id="qP2tun5V-NxsUiKVBMGJ-94" value="F&lt;span style=&quot;font-size: 6.94444px&quot;&gt;&lt;sub&gt;0&lt;/sub&gt;&lt;/span&gt;" style="text;html=1;strokeColor=none;fillColor=none;align=center;verticalAlign=middle;whiteSpace=wrap;rounded=0;" vertex="1" parent="1">
          <mxGeometry x="285" y="210" width="30" height="30" as="geometry" />
        </mxCell>
        <mxCell id="qP2tun5V-NxsUiKVBMGJ-95" value="MS0" style="text;html=1;strokeColor=none;fillColor=none;align=center;verticalAlign=middle;whiteSpace=wrap;rounded=0;" vertex="1" parent="1">
          <mxGeometry x="210" y="210" width="60" height="30" as="geometry" />
        </mxCell>
        <mxCell id="qP2tun5V-NxsUiKVBMGJ-96" value="MS1" style="text;html=1;strokeColor=none;fillColor=none;align=center;verticalAlign=middle;whiteSpace=wrap;rounded=0;" vertex="1" parent="1">
          <mxGeometry x="210" y="690" width="60" height="30" as="geometry" />
        </mxCell>
        <mxCell id="qP2tun5V-NxsUiKVBMGJ-97" value="MS2" style="text;html=1;strokeColor=none;fillColor=none;align=center;verticalAlign=middle;whiteSpace=wrap;rounded=0;" vertex="1" parent="1">
          <mxGeometry x="490" y="610" width="60" height="30" as="geometry" />
        </mxCell>
        <mxCell id="qP2tun5V-NxsUiKVBMGJ-99" value="a&lt;span style=&quot;font-size: 10px&quot;&gt;&lt;sub&gt;1&lt;/sub&gt;&lt;/span&gt;" style="text;html=1;strokeColor=none;fillColor=none;align=center;verticalAlign=middle;whiteSpace=wrap;rounded=0;" vertex="1" parent="1">
          <mxGeometry x="90" y="960" width="30" height="30" as="geometry" />
        </mxCell>
        <mxCell id="qP2tun5V-NxsUiKVBMGJ-101" value="a&lt;span style=&quot;font-size: 8.33333px&quot;&gt;&lt;sub&gt;2&lt;/sub&gt;&lt;/span&gt;" style="text;html=1;strokeColor=none;fillColor=none;align=center;verticalAlign=middle;whiteSpace=wrap;rounded=0;" vertex="1" parent="1">
          <mxGeometry x="90" y="1000" width="30" height="30" as="geometry" />
        </mxCell>
        <mxCell id="qP2tun5V-NxsUiKVBMGJ-102" value="a&lt;sub&gt;0&lt;/sub&gt;" style="text;html=1;strokeColor=none;fillColor=none;align=center;verticalAlign=middle;whiteSpace=wrap;rounded=0;" vertex="1" parent="1">
          <mxGeometry x="90" y="920" width="30" height="30" as="geometry" />
        </mxCell>
        <mxCell id="qP2tun5V-NxsUiKVBMGJ-103" value="a&lt;span style=&quot;font-size: 8.33333px&quot;&gt;&lt;sub&gt;2&lt;/sub&gt;&lt;/span&gt;" style="text;html=1;strokeColor=none;fillColor=none;align=center;verticalAlign=middle;whiteSpace=wrap;rounded=0;" vertex="1" parent="1">
          <mxGeometry x="90" y="520" width="30" height="30" as="geometry" />
        </mxCell>
        <mxCell id="qP2tun5V-NxsUiKVBMGJ-104" value="a&lt;span style=&quot;font-size: 10px&quot;&gt;&lt;sub&gt;1&lt;/sub&gt;&lt;/span&gt;" style="text;html=1;strokeColor=none;fillColor=none;align=center;verticalAlign=middle;whiteSpace=wrap;rounded=0;" vertex="1" parent="1">
          <mxGeometry x="90" y="480" width="30" height="30" as="geometry" />
        </mxCell>
        <mxCell id="qP2tun5V-NxsUiKVBMGJ-105" value="a&lt;sub&gt;0&lt;/sub&gt;" style="text;html=1;strokeColor=none;fillColor=none;align=center;verticalAlign=middle;whiteSpace=wrap;rounded=0;" vertex="1" parent="1">
          <mxGeometry x="90" y="440" width="30" height="30" as="geometry" />
        </mxCell>
        <mxCell id="qP2tun5V-NxsUiKVBMGJ-106" value="x&lt;sub&gt;0&lt;/sub&gt;" style="text;html=1;strokeColor=none;fillColor=none;align=center;verticalAlign=middle;whiteSpace=wrap;rounded=0;" vertex="1" parent="1">
          <mxGeometry x="90" y="120" width="30" height="30" as="geometry" />
        </mxCell>
        <mxCell id="qP2tun5V-NxsUiKVBMGJ-107" value="x&lt;span style=&quot;font-size: 10px&quot;&gt;&lt;sub&gt;1&lt;/sub&gt;&lt;/span&gt;" style="text;html=1;strokeColor=none;fillColor=none;align=center;verticalAlign=middle;whiteSpace=wrap;rounded=0;" vertex="1" parent="1">
          <mxGeometry x="90" y="160" width="30" height="30" as="geometry" />
        </mxCell>
        <mxCell id="qP2tun5V-NxsUiKVBMGJ-108" value="x&lt;span style=&quot;font-size: 10px&quot;&gt;&lt;sub&gt;2&lt;/sub&gt;&lt;/span&gt;" style="text;html=1;strokeColor=none;fillColor=none;align=center;verticalAlign=middle;whiteSpace=wrap;rounded=0;" vertex="1" parent="1">
          <mxGeometry x="90" y="200" width="30" height="30" as="geometry" />
        </mxCell>
        <mxCell id="qP2tun5V-NxsUiKVBMGJ-109" value="x&lt;span style=&quot;font-size: 10px&quot;&gt;&lt;sub&gt;3&lt;/sub&gt;&lt;/span&gt;" style="text;html=1;strokeColor=none;fillColor=none;align=center;verticalAlign=middle;whiteSpace=wrap;rounded=0;" vertex="1" parent="1">
          <mxGeometry x="90" y="240" width="30" height="30" as="geometry" />
        </mxCell>
        <mxCell id="qP2tun5V-NxsUiKVBMGJ-110" value="x&lt;span style=&quot;font-size: 10px&quot;&gt;&lt;sub&gt;4&lt;/sub&gt;&lt;/span&gt;" style="text;html=1;strokeColor=none;fillColor=none;align=center;verticalAlign=middle;whiteSpace=wrap;rounded=0;" vertex="1" parent="1">
          <mxGeometry x="90" y="280" width="30" height="30" as="geometry" />
        </mxCell>
        <mxCell id="qP2tun5V-NxsUiKVBMGJ-111" value="x&lt;span style=&quot;font-size: 8.33333px&quot;&gt;&lt;sub&gt;5&lt;/sub&gt;&lt;/span&gt;" style="text;html=1;strokeColor=none;fillColor=none;align=center;verticalAlign=middle;whiteSpace=wrap;rounded=0;" vertex="1" parent="1">
          <mxGeometry x="90" y="320" width="30" height="30" as="geometry" />
        </mxCell>
        <mxCell id="qP2tun5V-NxsUiKVBMGJ-112" value="x&lt;span style=&quot;font-size: 8.33333px&quot;&gt;&lt;sub&gt;6&lt;/sub&gt;&lt;/span&gt;" style="text;html=1;strokeColor=none;fillColor=none;align=center;verticalAlign=middle;whiteSpace=wrap;rounded=0;" vertex="1" parent="1">
          <mxGeometry x="90" y="360" width="30" height="30" as="geometry" />
        </mxCell>
        <mxCell id="qP2tun5V-NxsUiKVBMGJ-113" value="x&lt;span style=&quot;font-size: 8.33333px&quot;&gt;&lt;sub&gt;7&lt;/sub&gt;&lt;/span&gt;" style="text;html=1;strokeColor=none;fillColor=none;align=center;verticalAlign=middle;whiteSpace=wrap;rounded=0;" vertex="1" parent="1">
          <mxGeometry x="90" y="400" width="30" height="30" as="geometry" />
        </mxCell>
        <mxCell id="qP2tun5V-NxsUiKVBMGJ-114" value="x&lt;span style=&quot;font-size: 8.33333px&quot;&gt;&lt;sub&gt;8&lt;/sub&gt;&lt;/span&gt;" style="text;html=1;strokeColor=none;fillColor=none;align=center;verticalAlign=middle;whiteSpace=wrap;rounded=0;" vertex="1" parent="1">
          <mxGeometry x="90" y="600" width="30" height="30" as="geometry" />
        </mxCell>
        <mxCell id="qP2tun5V-NxsUiKVBMGJ-115" value="x&lt;span style=&quot;font-size: 8.33333px&quot;&gt;&lt;sub&gt;9&lt;/sub&gt;&lt;/span&gt;" style="text;html=1;strokeColor=none;fillColor=none;align=center;verticalAlign=middle;whiteSpace=wrap;rounded=0;" vertex="1" parent="1">
          <mxGeometry x="90" y="640" width="30" height="30" as="geometry" />
        </mxCell>
        <mxCell id="qP2tun5V-NxsUiKVBMGJ-116" value="x&lt;span style=&quot;font-size: 8.33333px&quot;&gt;&lt;sub&gt;10&lt;/sub&gt;&lt;/span&gt;" style="text;html=1;strokeColor=none;fillColor=none;align=center;verticalAlign=middle;whiteSpace=wrap;rounded=0;" vertex="1" parent="1">
          <mxGeometry x="90" y="680" width="30" height="30" as="geometry" />
        </mxCell>
        <mxCell id="qP2tun5V-NxsUiKVBMGJ-117" value="x&lt;span style=&quot;font-size: 8.33333px&quot;&gt;&lt;sub&gt;11&lt;/sub&gt;&lt;/span&gt;" style="text;html=1;strokeColor=none;fillColor=none;align=center;verticalAlign=middle;whiteSpace=wrap;rounded=0;" vertex="1" parent="1">
          <mxGeometry x="90" y="720" width="30" height="30" as="geometry" />
        </mxCell>
        <mxCell id="qP2tun5V-NxsUiKVBMGJ-118" value="x&lt;span style=&quot;font-size: 8.33333px&quot;&gt;&lt;sub&gt;12&lt;/sub&gt;&lt;/span&gt;" style="text;html=1;strokeColor=none;fillColor=none;align=center;verticalAlign=middle;whiteSpace=wrap;rounded=0;" vertex="1" parent="1">
          <mxGeometry x="90" y="760" width="30" height="30" as="geometry" />
        </mxCell>
        <mxCell id="qP2tun5V-NxsUiKVBMGJ-119" value="x&lt;span style=&quot;font-size: 8.33333px&quot;&gt;&lt;sub&gt;13&lt;/sub&gt;&lt;/span&gt;" style="text;html=1;strokeColor=none;fillColor=none;align=center;verticalAlign=middle;whiteSpace=wrap;rounded=0;" vertex="1" parent="1">
          <mxGeometry x="90" y="800" width="30" height="30" as="geometry" />
        </mxCell>
        <mxCell id="qP2tun5V-NxsUiKVBMGJ-120" value="x&lt;span style=&quot;font-size: 8.33333px&quot;&gt;&lt;sub&gt;14&lt;/sub&gt;&lt;/span&gt;" style="text;html=1;strokeColor=none;fillColor=none;align=center;verticalAlign=middle;whiteSpace=wrap;rounded=0;" vertex="1" parent="1">
          <mxGeometry x="90" y="840" width="30" height="30" as="geometry" />
        </mxCell>
        <mxCell id="qP2tun5V-NxsUiKVBMGJ-121" value="x&lt;span style=&quot;font-size: 8.33333px&quot;&gt;&lt;sub&gt;15&lt;/sub&gt;&lt;/span&gt;" style="text;html=1;strokeColor=none;fillColor=none;align=center;verticalAlign=middle;whiteSpace=wrap;rounded=0;" vertex="1" parent="1">
          <mxGeometry x="90" y="880" width="30" height="30" as="geometry" />
        </mxCell>
        <mxCell id="qP2tun5V-NxsUiKVBMGJ-122" value="a&lt;span style=&quot;font-size: 8.33333px&quot;&gt;&lt;sub&gt;3&lt;/sub&gt;&lt;/span&gt;" style="text;html=1;strokeColor=none;fillColor=none;align=center;verticalAlign=middle;whiteSpace=wrap;rounded=0;" vertex="1" parent="1">
          <mxGeometry x="90" y="1080" width="30" height="30" as="geometry" />
        </mxCell>
        <mxCell id="qP2tun5V-NxsUiKVBMGJ-123" value="&lt;font style=&quot;font-size: 16px&quot;&gt;Береснев Денис, ИВБО-02-19&lt;/font&gt;" style="text;html=1;strokeColor=none;fillColor=none;align=center;verticalAlign=middle;whiteSpace=wrap;rounded=0;" vertex="1" parent="1">
          <mxGeometry x="660" width="160" height="60" as="geometry" />
        </mxCell>
        <mxCell id="qP2tun5V-NxsUiKVBMGJ-124" value="Синтезировать мультиплексор 16х1 на основе мультиплексоров 8х1" style="text;html=1;strokeColor=none;fillColor=none;align=center;verticalAlign=middle;whiteSpace=wrap;rounded=0;fontSize=16;" vertex="1" parent="1">
          <mxGeometry x="250" y="40" width="360" height="60" as="geometry" />
        </mxCell>
      </root>
    </mxGraphModel>
  </diagram>
</mxfile>
